<?xml version="1.0" standalone="no"?>
<!DOCTYPE svg PUBLIC "-//W3C//DTD SVG 20010904//EN"
 "http://www.w3.org/TR/2001/REC-SVG-20010904/DTD/svg10.dtd">
<svg version="1.0" xmlns="http://www.w3.org/2000/svg"
 width="736.000000pt" height="736.000000pt" viewBox="0 0 736.000000 736.000000"
 preserveAspectRatio="xMidYMid meet">

<g transform="translate(0.000000,736.000000) scale(0.100000,-0.100000)"
fill="#000000" stroke="none">
<path d="M0 3680 l0 -3680 3680 0 3680 0 0 3680 0 3680 -3680 0 -3680 0 0
-3680z m3858 528 c1 -104 5 -188 8 -188 2 0 30 11 62 24 232 97 477 64 637
-86 109 -101 158 -225 157 -396 0 -187 -55 -341 -159 -453 -66 -70 -116 -100
-208 -124 -147 -38 -301 -6 -438 91 -26 19 -49 34 -52 34 -3 0 -5 -27 -5 -59
0 -44 -4 -60 -16 -65 -26 -10 -212 -7 -219 4 -4 7 -8 1057 -5 1398 0 10 27 12
118 10 l117 -3 3 -187z m1352 107 l0 -85 -125 0 -125 0 0 85 0 85 125 0 125 0
0 -85z m-3491 -205 c135 -22 225 -96 267 -220 17 -50 19 -91 19 -480 l0 -425
-117 -3 -118 -3 0 366 c0 398 -8 489 -45 529 -43 46 -151 58 -279 31 -164 -35
-277 -135 -291 -257 -3 -24 -7 -56 -9 -73 -3 -16 -5 -157 -5 -312 l-1 -283
-120 0 -120 0 0 545 0 545 119 0 120 0 3 -44 3 -44 62 38 c135 82 339 117 512
90z m4476 -5 c89 -17 166 -56 206 -105 57 -68 59 -91 59 -571 0 -389 -2 -438
-16 -443 -20 -8 -198 -8 -218 0 -14 5 -16 42 -16 305 l0 299 -27 -11 c-16 -6
-95 -28 -178 -50 -254 -67 -330 -119 -330 -223 0 -64 28 -106 90 -135 57 -27
128 -27 246 -1 51 12 94 18 97 16 2 -3 -8 -42 -24 -88 l-29 -83 -65 -18 c-248
-67 -453 5 -538 191 -59 131 -11 298 111 379 66 44 134 68 337 119 203 51 277
84 302 133 74 148 -241 180 -590 60 -30 -10 -56 -18 -57 -17 -1 2 3 43 9 93
l11 89 80 24 c172 50 392 66 540 37z m-3715 -357 c0 -420 13 -496 92 -543 28
-17 51 -20 148 -20 108 0 119 2 182 32 78 37 151 100 181 158 20 38 22 56 25
368 l4 327 119 0 119 0 0 -540 0 -540 -22 -5 c-13 -3 -66 -5 -118 -3 l-95 3
-3 63 c-2 34 -5 62 -8 62 -3 0 -20 -11 -38 -25 -41 -31 -127 -69 -208 -91 -44
-13 -102 -18 -193 -18 -121 -1 -134 1 -187 26 -117 55 -203 169 -227 302 -7
36 -11 203 -11 413 l0 353 120 0 120 0 0 -322z m2728 -220 l-3 -543 -100 -3
c-55 -2 -110 0 -122 3 l-23 5 0 540 0 540 125 0 125 0 -2 -542z"/>
<path d="M4052 3885 c-57 -16 -97 -35 -155 -73 l-38 -25 3 -191 c3 -180 4
-194 28 -239 50 -99 152 -165 267 -175 80 -6 137 15 193 71 83 83 126 208 118
348 -8 139 -60 228 -158 272 -59 27 -185 32 -258 12z"/>
</g>
</svg>
