<?xml version="1.0" standalone="no"?>
<!DOCTYPE svg PUBLIC "-//W3C//DTD SVG 20010904//EN"
 "http://www.w3.org/TR/2001/REC-SVG-20010904/DTD/svg10.dtd">
<svg version="1.0" xmlns="http://www.w3.org/2000/svg"
 width="2400.000000pt" height="2400.000000pt" viewBox="0 0 2400.000000 2400.000000"
 preserveAspectRatio="xMidYMid meet">

<g transform="translate(0.000000,2400.000000) scale(0.100000,-0.100000)"
fill="#000000" stroke="none">
<path d="M20885 13454 c-199 -27 -317 -61 -423 -120 -78 -44 -179 -137 -227
-210 -49 -73 -92 -196 -102 -286 -4 -40 -6 -446 -3 -903 l5 -830 26 -67 c62
-158 156 -264 308 -342 227 -117 593 -163 868 -108 388 78 567 220 619 492 13
68 17 183 21 573 l5 487 -461 0 -461 0 0 -200 0 -200 95 0 96 0 -3 -252 c-3
-287 -8 -308 -80 -355 -107 -71 -264 -16 -297 104 -7 25 -11 299 -11 803 0
886 -6 826 94 875 72 35 162 33 215 -4 57 -41 71 -87 71 -238 l0 -133 361 0
362 0 -6 183 c-6 207 -20 276 -74 379 -85 162 -261 273 -519 328 -73 16 -145
22 -274 25 -96 2 -188 1 -205 -1z"/>
<path d="M2835 13433 c-81 -10 -239 -48 -323 -78 -157 -56 -281 -144 -348
-245 -64 -97 -89 -260 -81 -539 7 -285 39 -381 174 -522 96 -100 180 -156 453
-299 324 -170 341 -180 393 -232 111 -111 130 -267 44 -365 -66 -75 -163 -93
-255 -47 -85 42 -96 70 -102 254 l-5 155 -380 0 -380 0 1 -205 c1 -194 2 -209
27 -286 106 -321 473 -502 977 -481 477 20 806 206 903 512 20 64 22 90 22
315 0 225 -2 251 -23 323 -55 190 -151 316 -325 424 -49 30 -189 103 -311 163
-238 116 -373 193 -422 241 -41 40 -81 114 -90 165 -13 83 33 174 106 212 90
47 233 13 283 -68 19 -31 22 -52 25 -172 l4 -138 354 0 354 0 0 203 c0 286
-23 360 -150 487 -114 114 -283 184 -517 215 -102 13 -330 18 -408 8z"/>
<path d="M12155 13433 c-453 -54 -675 -217 -724 -531 -16 -104 -14 -454 3
-544 36 -185 123 -308 311 -440 28 -19 178 -102 334 -184 310 -163 379 -212
429 -308 52 -100 31 -233 -48 -299 -78 -66 -207 -60 -280 13 -49 49 -60 95
-60 249 l0 131 -381 0 -381 0 4 -217 c4 -204 6 -222 30 -285 91 -241 282 -384
600 -448 372 -76 820 1 1065 183 71 53 139 134 177 212 49 100 56 149 57 404
1 264 -10 333 -72 454 -96 190 -194 266 -588 458 -340 166 -435 230 -486 329
-23 44 -30 129 -15 174 16 48 66 105 107 122 67 29 179 13 233 -33 53 -44 60
-69 60 -218 l0 -135 360 0 360 0 0 188 c0 201 -12 288 -50 363 -124 247 -425
373 -882 368 -73 -1 -146 -4 -163 -6z"/>
<path d="M9306 13333 c-3 -16 -55 -341 -116 -723 -61 -382 -113 -707 -116
-722 -4 -22 -11 -28 -32 -28 l-27 0 -113 737 c-62 405 -115 741 -118 745 -3 4
-271 8 -595 8 -463 0 -590 -3 -593 -12 -3 -7 -16 -575 -30 -1263 -14 -687 -27
-1293 -29 -1345 l-2 -95 353 -3 352 -2 0 363 c0 200 3 662 7 1026 l6 662 26
-3 26 -3 187 -1020 c103 -561 187 -1021 188 -1022 0 -2 166 -3 370 -3 l370 0
5 23 c6 26 365 2016 365 2022 0 3 11 5 23 5 l24 0 6 -442 c4 -244 7 -617 7
-829 0 -212 3 -474 7 -582 l6 -197 348 0 c191 0 350 3 352 8 2 4 -13 608 -34
1342 -21 734 -38 1345 -39 1358 l0 22 -589 0 -589 0 -6 -27z"/>
<path d="M14140 12282 c0 -1047 1 -1081 20 -1158 51 -199 168 -344 360 -443
136 -70 266 -103 476 -121 145 -13 251 -7 403 22 304 57 520 196 620 398 72
146 70 111 71 1313 l0 1067 -380 0 -380 0 -2 -1067 -3 -1068 -27 -47 c-39 -65
-97 -92 -183 -85 -74 5 -115 26 -159 80 l-31 39 -6 641 c-4 353 -7 837 -8
1075 l-1 432 -385 0 -385 0 0 -1078z"/>
<path d="M17060 11995 l0 -1365 350 0 350 0 0 118 c0 131 -26 1203 -35 1410
-4 121 -3 132 13 132 13 0 103 -190 393 -827 l375 -828 422 -3 422 -2 0 1365
0 1365 -359 0 -360 0 5 -107 c8 -175 44 -1391 44 -1475 0 -59 -3 -78 -13 -78
-9 0 -156 324 -377 830 l-364 830 -433 0 -433 0 0 -1365z"/>
<path d="M5105 13338 c-4 -14 -465 -2678 -465 -2690 0 -5 170 -8 379 -8 l378
0 15 113 c9 61 71 534 139 1049 l124 938 31 0 31 0 16 -117 c9 -65 71 -538
139 -1050 l123 -933 378 0 c295 0 377 3 377 13 0 6 -104 616 -232 1355 l-232
1342 -598 0 c-470 0 -600 -3 -603 -12z"/>
</g>
</svg>
